<svg xmlns="http://www.w3.org/2000/svg" width="232" height="232" viewBox="0 0 232 232">
  <g fill="none">
    <rect width="231.18" height="231.76" fill="#FFF"/>
    <g transform="translate(29 45)">
      <g fill="#FFF">
        <path d="M172.73,60.34 C172.640546,60.0968014 172.380113,59.9622445 172.13,60.03 C129.24,71.42 123.88,74.57 123.76,74.66 C114.91,77.95 101.63,94.98 99.36,97.96 C90.4751365,90.8141575 79.3810861,86.9817959 67.98,87.12 C64.5074662,87.0772574 61.0414866,87.4329145 57.65,88.18 C46.4896538,90.3813695 35.1350525,91.4468057 23.76,91.36 C16.1442208,91.3918588 8.53353825,90.9610654 0.97,90.07 C0.739787294,90.0374135 0.518371024,90.1710988 0.44,90.39 C0.357084763,90.6046557 0.43138181,90.848185 0.62,90.98 C12.94,99.43 56.55,102.06 58.41,102.17 C83.41,103.05 92.41,111.29 92.5,111.4 C95.06,113.4 97.5,114.4 99.82,114.4 C102.615014,114.303725 105.170948,112.79802 106.61,110.4 C123.12,87.18 125.93,85.4 125.99,85.4 C126.076467,85.3675687 126.152505,85.3122681 126.21,85.24 C130.15,80.38 172.03,61.08 172.46,60.88 C172.66078,60.780782 172.771094,60.5601549 172.73,60.34 Z"/>
        <path d="M14.67,0.99 L14.67,140.78 L154.83,140.78 L154.83,0.99 L14.67,0.99 Z M153.54,139.47 L16.04,139.47 L16.04,2.11 L153.54,2.11 L153.54,139.47 Z"/>
      </g>
      <path fill="#09C" d="M153.54,139.47 L16.04,139.47 L16.04,2.11 L153.54,2.11 L153.54,139.47 Z M17.04,138.47 L152.54,138.47 L152.54,3.11 L17.04,3.11 L17.04,138.47 Z"/>
      <rect width="135.5" height="135.36" x="17.04" y="3.1" fill="#F93"/>
      <path fill="#F93" d="M163.33,2.06 C165.628689,2.0437972 167.70969,3.41709591 168.598741,5.53695963 C169.487792,7.65682335 169.008937,10.1037012 167.386363,11.7320396 C165.763789,13.3603781 163.318624,13.8479061 161.195621,12.9663778 C159.072618,12.0848496 157.691949,10.0087321 157.7,7.71 C157.681111,6.20929172 158.267551,4.76424322 159.326913,3.7011182 C160.386274,2.63799317 161.829234,2.04643286 163.33,2.06 L163.33,2.06 Z M163.33,2.94 C160.772308,3.05695553 158.758804,5.16463502 158.758804,7.725 C158.758804,10.285365 160.772308,12.3930445 163.33,12.51 C165.887692,12.3930445 167.901196,10.285365 167.901196,7.725 C167.901196,5.16463502 165.887692,3.05695553 163.33,2.94 Z M162.33,11 L161.33,11 L161.33,4.69 C161.918399,4.59273063 162.513621,4.54257142 163.11,4.54 C163.810615,4.4849481 164.510686,4.65296517 165.11,5.02 C165.511363,5.33131921 165.729308,5.82357476 165.69,6.33 C165.688716,7.06505222 165.17761,7.7008176 164.46,7.86 L164.46,7.86 C165.02,7.96 165.39,8.46 165.52,9.39 C165.570864,9.92773032 165.705841,10.4541403 165.92,10.95 L164.86,10.95 C164.623307,10.442722 164.477753,9.89774044 164.43,9.34 C164.41139,9.00730632 164.252985,8.69798944 163.993908,8.48844153 C163.73483,8.27889363 163.399233,8.18865066 163.07,8.24 L162.33,8.24 L162.33,10.95 L162.33,11 Z M162.33,7.51 L163.06,7.51 C163.89,7.51 164.59,7.21 164.59,6.43 C164.59,5.88 164.19,5.32 163.06,5.32 C162.815723,5.31717117 162.57161,5.33389118 162.33,5.37 L162.33,7.5 L162.33,7.51 Z"/>
      <g fill="#FFF" transform="translate(23 121)">
        <polygon points=".17 1.09 9.25 1.09 9.25 3.15 5.88 3.15 5.88 13.04 3.53 13.04 3.53 3.15 .17 3.15 .17 1.09"/>
        <path d="M19.56.86C20.4990691.818314914 21.4337698 1.01075327 22.28 1.42 23.1662481 1.8961705 23.8852163 2.63258941 24.34 3.53 24.8585672 4.66033489 25.1018822 5.89747146 25.05 7.14 25.1713506 8.79583253 24.6603345 10.4360868 23.62 11.73 22.6465304 12.7734767 21.2658082 13.3396458 19.84 13.28 18.3914853 13.3348611 16.9904559 12.7583958 16 11.7 14.9425134 10.4022461 14.4203008 8.74976503 14.54 7.08 14.5209165 5.95865517 14.7213458 4.84440422 15.13 3.8 15.3629711 3.23991698 15.7026045 2.73046677 16.13 2.3 16.5628895 1.83959971 17.0875115 1.47508963 17.67 1.23 18.2751411.978927067 18.9248777.853061854 19.58.86L19.56.86zM19.79 2.86C19.001983 2.8552071 18.2589759 3.22671064 17.79 3.86 17.1797368 4.80982412 16.9018861 5.93529527 17 7.06 16.9029572 8.17024117 17.1849548 9.28060657 17.8 10.21 18.2771791 10.8334417 19.0149392 11.2023217 19.8 11.21 20.5887765 11.2180698 21.3331899 10.8458631 21.8 10.21 22.406417 9.2845744 22.6846111 8.18236242 22.59 7.08 22.7032437 5.85126693 22.3458356 4.62535721 21.59 3.65 21.1042714 3.14665679 20.4292276 2.87083242 19.73 2.89L19.79 2.86zM31.6 1.09L33.96 1.09 33.96 8.38C33.9141652 9.10179197 34.1387586 9.81478702 34.59 10.38 35.0378764 10.8449481 35.665266 11.0929859 36.31 11.06 36.7355878 11.0685873 37.1571379 10.9760519 37.54 10.79 37.9135552 10.5917219 38.2146423 10.2801318 38.4 9.9 38.6308854 9.41340673 38.7406724 8.87819487 38.72 8.34L38.72 1.05 41.1 1.05 41.1 8.69C41.1804559 9.9305569 40.7464157 11.1494864 39.9 12.06 38.938564 12.906401 37.6776461 13.3315105 36.4 13.24 35.5549758 13.2480737 34.7152449 13.1058612 33.92 12.82 33.5527877 12.6874207 33.2136201 12.4873118 32.92 12.23 32.5229706 11.8560446 32.2035487 11.4074947 31.98 10.91 31.7045456 10.2279791 31.5783819 9.49486591 31.61 8.76L31.61 1.06 31.6 1.09zM48.33 1.09L51.56 1.09C52.7731913 1.02458005 53.9889646 1.15628881 55.16 1.48 55.8056051 1.72590692 56.350954 2.17977788 56.71 2.77 57.0881283 3.389716 57.2823399 4.1041373 57.27 4.83 57.2927665 5.45779823 57.117878 6.07690359 56.77 6.6 56.3156728 7.15258245 55.7167234 7.56803872 55.04 7.8L57.19 13.05 54.86 13.05 52.86 8.24 50.7 8.24 50.7 13.05 48.33 13.05 48.33 1.05 48.33 1.09zM50.69 3.18L50.69 6.38 52.58 6.38C53.2163465 6.39778272 53.8389008 6.19262278 54.34 5.8 54.6625294 5.53672927 54.8407105 5.13582177 54.82 4.72 54.8255321 4.290525 54.6293304 3.88331395 54.29 3.62 53.7860669 3.28438281 53.1833377 3.12929459 52.58 3.18L50.69 3.18z"/>
        <polygon points="64.13 1.09 66.48 1.09 66.48 13.04 64.13 13.04 64.13 1.09"/>
        <path d="M75.41,9.69 C75.7050185,10.1946603 76.1038084,10.6309433 76.58,10.97 C76.9864214,11.2163789 77.454865,11.3412972 77.93,11.33 C78.4569717,11.3638491 78.9776068,11.1998133 79.39,10.87 C79.7195983,10.5999271 79.9104912,10.1961153 79.91,9.77 C79.9185481,9.39411668 79.7699559,9.03169665 79.5,8.77 C78.942645,8.3613144 78.2998539,8.08436719 77.62,7.96 C76.5839566,7.74940759 75.607305,7.31230474 74.76,6.68 C74.0644664,6.09587122 73.6710196,5.22808216 73.69,4.32 C73.6641315,3.37033222 74.0550839,2.45689195 74.76,1.82 C75.5741814,1.1196682 76.627659,0.761342467 77.7,0.82 C78.3479369,0.810099447 78.9910724,0.932601444 79.59,1.18 C80.1111955,1.39550881 80.5889406,1.70384076 81,2.09 C81.2920885,2.38958648 81.5441818,2.72571078 81.75,3.09 L79.75,3.9 C79.4832954,3.50610447 79.1438955,3.16670456 78.75,2.9 C78.4034359,2.6800168 78.0004606,2.56537729 77.59,2.57 C77.1285223,2.54555929 76.6759466,2.70360162 76.33,3.01 C76.0274984,3.27880014 75.8561058,3.66534515 75.86,4.07 C75.8582499,4.39984829 76.0007116,4.71399476 76.25,4.93 C76.8317735,5.30711397 77.485617,5.55911613 78.17,5.67 C78.9879582,5.8445927 79.7739408,6.14481783 80.5,6.56 C81.0126415,6.87965394 81.4250166,7.33707853 81.69,7.88 C81.950027,8.39848354 82.086911,8.96997442 82.09,9.55 C82.0790771,10.1903914 81.9034381,10.8171815 81.58,11.37 C81.2356305,11.9856606 80.7077775,12.4785565 80.07,12.78 C78.6655578,13.4075498 77.0661846,13.4364324 75.64,12.86 C75.0583651,12.6004126 74.5372688,12.2223623 74.11,11.75 C73.7845966,11.3699187 73.5090367,10.9498579 73.29,10.5 L75.4,9.68 L75.41,9.69 Z"/>
        <polygon points="88.06 1.09 97.14 1.09 97.14 3.15 93.76 3.15 93.76 13.04 91.42 13.04 91.42 3.15 88.06 3.15 88.06 1.09"/>
        <polygon points="103.73 1.09 106.07 1.09 106.07 13.04 103.73 13.04 103.73 1.09"/>
        <polygon points="113.58 1.09 115.92 1.09 115.92 6.38 120.23 1.09 122.82 1.09 119.08 5.71 123.1 13.04 120.8 13.04 117.72 7.41 115.92 9.63 115.92 13.04 113.58 13.04 113.58 1.09"/>
      </g>
      <g fill="#FFF" transform="translate(23 9)">
        <polygon points=".34 .49 41.33 .47 41.33 18.58 20.14 18.58 20.15 31.78 36.61 31.77 36.64 49.8 20.13 49.83 20.15 78.16 .34 78.16 .34 .49"/>
        <polygon points="45.67 .5 45.67 18.52 62.56 18.52 62.56 78.15 82.05 78.15 82.05 18.52 99.03 18.52 99.03 .5 45.67 .5"/>
        <polygon points="104.01 .45 123.66 .45 123.66 78.14 104.01 78.14 104.01 .45"/>
      </g>
      <path fill="#09C" d="M99.6,98.83 L99.44,99.04 L99.24,98.87 C90.4314354,91.6249788 79.3444354,87.728589 67.94,87.87 C64.5232327,87.8210587 61.1117977,88.1564997 57.77,88.87 C46.5539034,91.0844174 35.1422777,92.1565608 23.71,92.07 C16.4341909,92.0842025 9.16313994,91.6969473 1.93,90.91 C15.27,98.78 57.93,101.35 58.4,101.38 C83.73,102.27 92.85,110.7 92.94,110.79 C95.34,112.68 97.65,113.65 99.78,113.65 C102.309435,113.54021 104.620195,112.184464 105.95,110.03 C121.68,87.91 125.08,85.13 125.62,84.79 C129.26,80.42 160.16,65.79 169.5,61.47 C129.41,72.19 124.07,75.29 124.02,75.32 C114.68,78.81 99.75,98.63 99.6,98.83 Z"/>
      <path fill="#FFF" d="M99.78,114.18 C97.54,114.18 95.13,113.18 92.62,111.18 C92.51,111.08 83.51,102.78 58.39,101.9 C57.93,101.9 13,99.17 0.73,90.76 L0.9,90.31 C8.47346336,91.202427 16.0942102,91.6332229 23.72,91.6 C35.1116901,91.6888119 46.4830756,90.6233727 57.66,88.42 C61.038428,87.7028922 64.4867032,87.3674568 67.94,87.42 C79.3507648,87.2615638 90.4567629,91.1039065 99.33,98.28 C101.05,96.02 114.75,78.21 123.78,74.85 C123.94,74.74 129.27,71.61 172.12,60.23 L172.29,60.7 C171.87,60.89 129.93,80.22 125.95,85.13 L125.95,85.18 L125.88,85.18 C125.79,85.18 123.13,86.71 106.38,110.26 C104.971624,112.585798 102.496156,114.056076 99.78,114.18 Z M1.94,90.94 C15.28,98.81 57.94,101.38 58.41,101.41 C83.74,102.3 92.86,110.73 92.95,110.82 C95.35,112.71 97.66,113.68 99.79,113.68 C102.319435,113.57021 104.630195,112.214464 105.96,110.06 C121.69,87.94 125.09,85.16 125.63,84.82 C129.27,80.45 160.17,65.82 169.51,61.5 C129.42,72.22 124.08,75.32 124.03,75.35 C114.69,78.83 99.76,98.64 99.61,98.84 L99.45,99.05 L99.25,98.88 C90.4414354,91.6349788 79.3544354,87.738589 67.95,87.88 C64.5332327,87.8310587 61.1217977,88.1664997 57.78,88.88 C46.5639034,91.0944174 35.1522777,92.1665608 23.72,92.08 L23.72,92.08 C16.4445592,92.1008447 9.17350933,91.7202663 1.94,90.94 Z"/>
    </g>
  </g>
</svg>
